<svg xmlns="http://www.w3.org/2000/svg" width="123.207" height="150" viewBox="0 0 123.207 150">
  <path id="Icon_ionic-ios-airplane" data-name="Icon ionic-ios-airplane" d="M128.042,55.952c-1.138,0-4.955.033-6.026.1l-21.729.569a.62.62,0,0,1-.569-.3L67.141,7.54a5.381,5.381,0,0,0-4.52-2.478H54.687c-1.875,0-2.511,1.875-1.841,3.616l16.774,47.81a.655.655,0,0,1-.6.9l-40.98.6a2.7,2.7,0,0,1-2.21-1.038L13.439,41.891a5.314,5.314,0,0,0-4.219-2.042H3.6a1.333,1.333,0,0,0-1.272,1.774l6.663,23a5.456,5.456,0,0,1,0,3.984l-6.663,23A1.333,1.333,0,0,0,3.6,93.383H9.187a5.415,5.415,0,0,0,4.219-2.042l12.622-15.3A2.742,2.742,0,0,1,28.237,75l40.745.9a.664.664,0,0,1,.6.9L52.812,124.654c-.67,1.741-.033,3.616,1.841,3.616h7.935a5.338,5.338,0,0,0,4.52-2.478l32.61-48.747a.658.658,0,0,1,.569-.3l21.729.569c1.1.067,4.888.1,6.026.1,14.832,0,24.206-4.788,24.206-10.714S142.907,55.952,128.042,55.952Z" transform="translate(-5.063 152.248) rotate(-90)" fill="rgba(0,0,0,0.15)"/>
</svg>
