<svg xmlns="http://www.w3.org/2000/svg" width="19" height="16.63" viewBox="0 0 19 16.63">
  <path id="Icon_map-food" data-name="Icon map-food" d="M19.678,7.263,18.12,19.455H12.859L11.308,7.2h6.423L19,2.825l.72.217L18.5,7.254l1.176.009Zm-9.114,7.053s.2-1.581-2.531-1.581H3.688c-2.724,0-2.531,1.581-2.531,1.581ZM1.157,17.874s-.193,1.581,2.531,1.581H8.033c2.728,0,2.531-1.581,2.531-1.581Zm9-.79a.909.909,0,0,0,.807-.988.908.908,0,0,0-.807-.988H1.527A.91.91,0,0,0,.72,16.1a.911.911,0,0,0,.807.988Z" transform="translate(-0.72 -2.825)" fill="#fff"/>
</svg>
