<svg xmlns="http://www.w3.org/2000/svg" width="37.193" height="32.595" viewBox="0 0 37.193 32.595">
  <g id="iconfinder_dollar_finance_money_4057995" transform="translate(-21 -50)">
    <path id="Trazado_9" data-name="Trazado 9" d="M60.255,152a2.255,2.255,0,1,0,2.255,2.255A2.259,2.259,0,0,0,60.255,152Zm0,3.394a1.143,1.143,0,1,1,1.147-1.139A1.148,1.148,0,0,1,60.255,155.394Z" transform="translate(-34.073 -93.93)" fill="#ffba00"/>
    <path id="Trazado_10" data-name="Trazado 10" d="M214.255,152a2.255,2.255,0,1,0,2.255,2.255A2.259,2.259,0,0,0,214.255,152Zm0,3.394a1.147,1.147,0,1,1,1.147-1.147A1.148,1.148,0,0,1,214.255,155.394Z" transform="translate(-175.889 -93.93)" fill="#ffba00"/>
    <path id="Trazado_11" data-name="Trazado 11" d="M368.255,79.6a2.255,2.255,0,1,0,2.255,2.255A2.259,2.259,0,0,0,368.255,79.6Zm0,3.394a1.147,1.147,0,1,1,1.147-1.147A1.148,1.148,0,0,1,368.255,82.994Z" transform="translate(-317.705 -27.258)" fill="#ffba00"/>
    <path id="Trazado_12" data-name="Trazado 12" d="M64.389,59.059l-2.856-2.547a4.59,4.59,0,1,0-8.758-1.922,4.49,4.49,0,0,0,.609,2.271l-3.718,2.492a4.59,4.59,0,0,0-9.043.411H37.546a4.589,4.589,0,1,0,0,1.108h3.078a4.591,4.591,0,0,0,9.138-.253l4.288-2.872a4.6,4.6,0,0,0,5.245,1l2.547,2.856a1.831,1.831,0,0,0,1.3.609h.055a1.811,1.811,0,0,0,1.812-1.859A1.871,1.871,0,0,0,64.389,59.059ZM33,63.806a3.481,3.481,0,1,1,3.481-3.481A3.481,3.481,0,0,1,33,63.806Zm12.184,0a3.481,3.481,0,1,1,3.481-3.481h0A3.486,3.486,0,0,1,45.18,63.806Zm18.5-2.9h0a.68.68,0,0,1-.514.206.7.7,0,0,1-.506-.237L59.832,57.7a.565.565,0,0,0-.411-.182.535.535,0,0,0-.285.079,3.476,3.476,0,1,1,1.226-1.226.555.555,0,0,0,.111.7l3.18,2.824a.7.7,0,0,1,.032,1.021Z" transform="translate(-6.815)" fill="#ffba00"/>
    <path id="Trazado_13" data-name="Trazado 13" d="M23.453,217.045H55.178a.554.554,0,0,0,0-1.108H53.833V196.554a.55.55,0,0,0-.554-.554H47.82a.55.55,0,0,0-.554.554v19.383H45.415V210a.554.554,0,1,0-1.108,0v5.934H41.649V202.646a.55.55,0,0,0-.554-.554H35.636a.55.55,0,0,0-.554.554v13.291H32.828V210a.554.554,0,1,0-1.108,0v5.934H29.465V202.646a.55.55,0,0,0-.554-.554H23.453a.55.55,0,0,0-.554.554v13.291H21.554a.554.554,0,0,0,0,1.108Zm24.921-19.937h4.351v18.829H48.374ZM36.19,203.2h4.351v12.737H36.19Zm-12.184,0h4.351v12.737H24.006Z" transform="translate(0 -134.449)" fill="#ffba00"/>
  </g>
</svg>
