<svg xmlns="http://www.w3.org/2000/svg" width="82.293" height="83.281" viewBox="0 0 82.293 83.281">
  <path id="Icon_simple-probot" data-name="Icon simple-probot" d="M41.147.06a5.977,5.977,0,0,0-1.841,11.662l-2.164,8.843H8.421A8.421,8.421,0,0,0,0,28.986V73.661c0,4.651,3.77,9.68,8.421,9.68H73.872c4.65,0,8.421-5.031,8.421-9.68V28.986a8.423,8.423,0,0,0-8.421-8.421H45.059l-2.112-8.829A5.977,5.977,0,0,0,41.143.06ZM13.486,26.946H68.814a6.838,6.838,0,0,1,6.837,6.837v34.69c0,3.776-3.061,8.1-6.837,8.1H13.486c-3.776,0-6.837-4.32-6.837-8.1V33.783A6.838,6.838,0,0,1,13.486,26.946Zm11.158,7.928A15.687,15.687,0,1,0,40.331,50.561,15.687,15.687,0,0,0,24.643,34.873Zm33.408,0A15.687,15.687,0,1,0,73.738,50.561,15.687,15.687,0,0,0,58.051,34.873ZM24.643,38.542A12.021,12.021,0,1,1,12.622,50.563,12.019,12.019,0,0,1,24.643,38.542Zm33.408,0A12.021,12.021,0,1,1,46.029,50.563,12.019,12.019,0,0,1,58.051,38.542Zm-33.408,5.7a6.319,6.319,0,1,0,6.319,6.319A6.319,6.319,0,0,0,24.643,44.245Zm33.408,0a6.319,6.319,0,1,0,6.319,6.319,6.319,6.319,0,0,0-6.319-6.319ZM34.337,66.257v6.805l2.421,1.265v-7.4l-2.421-.667ZM38,67.2v7.4h2.417V67.583Zm3.689.384V74.6H44.11V67.2Zm3.7-.659v7.4l2.421-1.265V66.257ZM49.234,65.7v7.2a3.7,3.7,0,0,0,2.843-3.6v0a3.7,3.7,0,0,0-2.843-3.6Zm-16.368,0a3.7,3.7,0,0,0-2.507,3.5v0a3.7,3.7,0,0,0,2.507,3.5Z" transform="translate(0 -0.06)"/>
</svg>
