<svg id="robot" xmlns="http://www.w3.org/2000/svg" width="248" height="171.057" viewBox="0 0 248 171.057">
  <path id="Trazado_28" data-name="Trazado 28" d="M83.973,150.38V138.567a52.8,52.8,0,0,1,52.8-52.8H125.8a52.8,52.8,0,0,0-52.8,52.8V150.38a52.8,52.8,0,0,0,52.8,52.8h10.973A52.8,52.8,0,0,1,83.973,150.38Zm0,0" transform="translate(-32.947 -38.708)" fill="#d4e1f4"/>
  <path id="Trazado_29" data-name="Trazado 29" d="M221.6,82.172h-2.133V30.4a15.252,15.252,0,0,0,12.142-15.067,15.424,15.424,0,0,0-30.848,0A15.234,15.234,0,0,0,212.887,30.4V82.172h-1.119A59.421,59.421,0,0,0,155,40.473H93a59.421,59.421,0,0,0-56.77,41.7H26.4a26.611,26.611,0,0,0,0,53.221H38.476A59.663,59.663,0,0,0,93,171.057H155a59.663,59.663,0,0,0,54.529-35.664H221.6a26.611,26.611,0,0,0,0-53.221ZM207.36,15.333a8.839,8.839,0,1,1,8.839,8.839,8.839,8.839,0,0,1-8.839-8.839ZM26.4,128.809a20.028,20.028,0,0,1,0-40.053h8.219a64.473,64.473,0,0,0-1.149,11.036v11.839a61.71,61.71,0,0,0,2.61,17.178Zm181-17.137a52.8,52.8,0,0,1-52.8,52.8H92.854a52.8,52.8,0,0,1-52.8-52.8V99.858a52.8,52.8,0,0,1,52.8-52.8H154.6a52.8,52.8,0,0,1,52.8,52.8Zm14.2,17.137H211.92a61.71,61.71,0,0,0,2.61-17.178V99.792a64.473,64.473,0,0,0-1.149-11.036H221.6a20.028,20.028,0,0,1,0,40.053Zm0,0" fill="#0635c9"/>
  <g id="Grupo_47" data-name="Grupo 47" transform="translate(48.6 96.438)">
    <path id="Trazado_30" data-name="Trazado 30" d="M221,212.527a18.381,18.381,0,1,0,0-36.761H106.959a18.381,18.381,0,1,0,0,36.761ZM95.087,194.146a11.822,11.822,0,0,1,11.871-11.8H221a11.8,11.8,0,1,1,0,23.593H106.959a11.822,11.822,0,0,1-11.871-11.8Zm0,0" transform="translate(-88.578 -175.766)" fill="#1ae5be"/>
    <path id="Trazado_31" data-name="Trazado 31" d="M140.292,197.766h6.035a3.292,3.292,0,0,1,3.292,3.292v6.035a3.293,3.293,0,0,1-3.292,3.292h-6.035A3.293,3.293,0,0,1,137,207.093v-6.035A3.292,3.292,0,0,1,140.292,197.766Zm0,0" transform="translate(-110.432 -185.695)" fill="#1ae5be"/>
    <path id="Trazado_32" data-name="Trazado 32" d="M295.292,197.766h6.035a3.291,3.291,0,0,1,3.292,3.292v6.035a3.293,3.293,0,0,1-3.292,3.292h-6.035A3.293,3.293,0,0,1,292,207.093v-6.035A3.292,3.292,0,0,1,295.292,197.766Zm0,0" transform="translate(-180.388 -185.695)" fill="#1ae5be"/>
  </g>
</svg>
