<svg xmlns="http://www.w3.org/2000/svg" width="80" height="80" viewBox="0 0 80 80">
  <path id="cadena" d="M27.031,19.884a1.172,1.172,0,0,0,2.029-1.172l-2.738-4.743a1.172,1.172,0,1,0-2.029,1.172Zm-13.064,6.44,5.164,2.981a1.172,1.172,0,1,0,1.172-2.03l-5.164-2.981a1.172,1.172,0,0,0-1.172,2.03ZM66.033,53.676,60.87,50.695a1.172,1.172,0,0,0-1.172,2.03l5.164,2.981a1.172,1.172,0,0,0,1.172-2.03Zm-13.064,6.44a1.172,1.172,0,0,0-2.029,1.172l2.738,4.743a1.172,1.172,0,1,0,2.029-1.172ZM75.327,6.094,73.906,4.673A15.964,15.964,0,0,0,53.474,2.88,1.172,1.172,0,0,0,54.821,4.8,13.619,13.619,0,0,1,72.249,6.331l1.421,1.421A13.61,13.61,0,0,1,73.67,27L63.251,37.418a13.611,13.611,0,0,1-19.248,0L42.582,36a13.6,13.6,0,0,1-3.389-5.621l.8-.8a6.335,6.335,0,0,1,3.612-1.8,8.664,8.664,0,0,0,2.438,4.761l1.422,1.422a8.716,8.716,0,0,0,12.325,0L70.209,23.538a8.714,8.714,0,0,0,0-12.325L68.788,9.791a8.715,8.715,0,0,0-12.326,0l-8.673,8.673a16.165,16.165,0,0,0-6.674.02,13.706,13.706,0,0,1,1.467-1.735l8.3-8.3a1.172,1.172,0,0,0-1.658-1.657l-8.3,8.3a15.9,15.9,0,0,0-3.174,4.523A15.953,15.953,0,0,0,33.218,22.8L22.8,33.218a15.926,15.926,0,0,0-3.18,4.531,15.905,15.905,0,0,0-4.527,3.176L4.673,51.343a15.954,15.954,0,0,0,0,22.563l1.422,1.421A15.961,15.961,0,0,0,26.75,76.959a1.172,1.172,0,1,0-1.381-1.893,13.618,13.618,0,0,1-17.618-1.4L6.331,72.249A13.61,13.61,0,0,1,6.33,53L16.749,42.582a13.818,13.818,0,0,1,1.743-1.472,16.208,16.208,0,0,0-.022,6.674L9.791,56.462a8.714,8.714,0,0,0,0,12.325l1.421,1.422a8.717,8.717,0,0,0,12.326,0L33.957,59.79a8.716,8.716,0,0,0,0-12.325l-1.422-1.422a8.662,8.662,0,0,0-4.761-2.437,6.317,6.317,0,0,1,1.8-3.612l.8-.8A13.6,13.6,0,0,1,36,42.582L37.418,44a13.609,13.609,0,0,1,0,19.248l-8.074,8.074A1.172,1.172,0,0,0,31,72.983l8.074-8.075a15.959,15.959,0,0,0,3.184-4.533A15.906,15.906,0,0,0,46.782,57.2L57.2,46.783a15.841,15.841,0,0,0,3.159-4.517,15.966,15.966,0,0,0,4.548-3.191L75.327,28.657a15.954,15.954,0,0,0,0-22.563ZM49.122,32.3,47.7,30.878a6.335,6.335,0,0,1-1.68-2.984A6.335,6.335,0,0,1,49,29.575L50.425,31A6.322,6.322,0,0,1,52.1,33.983,6.33,6.33,0,0,1,49.122,32.3Zm9-20.851a6.373,6.373,0,0,1,9.011,0l1.421,1.422a6.371,6.371,0,0,1,0,9.011l-7.787,7.787A15.924,15.924,0,0,0,57.2,24.22L55.78,22.8a15.923,15.923,0,0,0-5.439-3.572Zm-36.238,57.1a6.373,6.373,0,0,1-9.011,0L11.449,67.13a6.371,6.371,0,0,1,0-9.011l7.78-7.78a15.877,15.877,0,0,0,3.57,5.441L24.22,57.2a15.978,15.978,0,0,0,5.441,3.571Zm9-20.851L32.3,49.122a6.329,6.329,0,0,1,1.684,2.985A6.339,6.339,0,0,1,31,50.426L29.575,49a6.315,6.315,0,0,1-1.681-2.985A6.338,6.338,0,0,1,30.878,47.7Zm-2.961-9.364a8.723,8.723,0,0,0,0,12.325l1.421,1.421A8.667,8.667,0,0,0,34.1,54.521a6.326,6.326,0,0,1-1.8,3.611l-.8.8a13.6,13.6,0,0,1-5.622-3.389l-1.421-1.422a13.5,13.5,0,0,1-3.542-6.18,1.161,1.161,0,0,0-.043-.167,13.76,13.76,0,0,1-.394-3.276,13.614,13.614,0,0,1,1.072-5.316,1.126,1.126,0,0,0,.074-.167,13.553,13.553,0,0,1,2.833-4.141L34.875,24.456a13.609,13.609,0,0,1,19.248,0l1.422,1.421a13.571,13.571,0,0,1,3.38,5.63l-.792.792a6.325,6.325,0,0,1-3.615,1.8,8.653,8.653,0,0,0-2.435-4.765l-1.421-1.422a8.727,8.727,0,0,0-12.326,0Zm11.158,4.01-1.422-1.422a15.972,15.972,0,0,0-5.441-3.571l5.141-5.141a15.972,15.972,0,0,0,3.571,5.441l1.421,1.422a15.92,15.92,0,0,0,5.438,3.573l-5.136,5.136A15.9,15.9,0,0,0,39.075,42.346Zm16.469,2.779L45.125,55.544a13.751,13.751,0,0,1-1.735,1.467,16.151,16.151,0,0,0,.02-6.674l6.928-6.928a16.142,16.142,0,0,0,6.669-.019A13.573,13.573,0,0,1,55.544,45.125Zm0,0"/>
</svg>
