<svg xmlns="http://www.w3.org/2000/svg" width="36" height="34.993" viewBox="0 0 36 34.993">
  <g id="iconfinder_e-commerce_online_shopping_ui_money_cash_payment_7341113" transform="translate(-5 -4.007)">
    <path id="Trazado_6" data-name="Trazado 6" d="M9,39H37a4,4,0,0,0,4-4V20.92a4.06,4.06,0,0,0-1.16-2.83,4,4,0,0,0-1.16-3L36.4,12.83l-2.31-4a4,4,0,0,0-3.47-2h-.21L28.78,5.18a4,4,0,0,0-5.66,0L11.44,16.91H9a4,4,0,0,0-3.27,1.71,1.81,1.81,0,0,0-.19.29,4.05,4.05,0,0,0-.54,2V35a4,4,0,0,0,4,4Zm30-4a2,2,0,0,1-2,2H9a2,2,0,0,1-2-2V20.92a2,2,0,0,1,.27-1l.06-.1h0a.86.86,0,0,0,.07-.1,2,2,0,0,1,1.55-.84h28.2a1.94,1.94,0,0,1,.89.28,2.29,2.29,0,0,1,.41.32A2,2,0,0,1,39,20.92ZM34.64,15l.51,1.92H19.8l.33-.09L32.2,13.56a2.26,2.26,0,0,1,.53-.06,1.88,1.88,0,0,1,.33,0h0A2,2,0,0,1,34.64,15ZM32.36,9.81l1,1.73a4.48,4.48,0,0,0-1.67.09L19.61,14.89l10-5.82a2.038,2.038,0,0,1,2.75.74ZM24.54,6.59a2,2,0,0,1,2.82,0l.94.93L17.19,14Z" fill="#0050ac"/>
    <path id="Trazado_7" data-name="Trazado 7" d="M36.27,24.13A5.07,5.07,0,0,1,34.43,22a1.66,1.66,0,0,0-1.49-1H13.06a1.66,1.66,0,0,0-1.49,1,5.07,5.07,0,0,1-1.84,2.18A1.6,1.6,0,0,0,9,25.47v5a1.62,1.62,0,0,0,.73,1.34A5,5,0,0,1,11.57,34a1.65,1.65,0,0,0,1.49,1H32.94a1.65,1.65,0,0,0,1.49-1,5,5,0,0,1,1.84-2.17A1.62,1.62,0,0,0,37,30.44v-5A1.6,1.6,0,0,0,36.27,24.13ZM35,30.22A7.24,7.24,0,0,0,32.67,33H13.33A7.24,7.24,0,0,0,11,30.22V25.68a7.09,7.09,0,0,0,2.33-2.76H32.67A7.09,7.09,0,0,0,35,25.68Z" fill="#0050ac"/>
    <path id="Trazado_8" data-name="Trazado 8" d="M23,22.93a5,5,0,1,0,5,5A5,5,0,0,0,23,22.93Zm0,8A1.249,1.249,0,1,1,23,31Z" fill="#0050ac"/>
  </g>
</svg>
