<svg xmlns="http://www.w3.org/2000/svg" width="79.908" height="76.578" viewBox="0 0 79.908 76.578">
  <g id="like" transform="translate(0 -10.667)">
    <g id="Grupo_43" data-name="Grupo 43" transform="translate(0 10.667)">
      <g id="Grupo_42" data-name="Grupo 42">
        <path id="Trazado_26" data-name="Trazado 26" d="M79.908,56.448a7.4,7.4,0,0,0-2.168-5.241,8.266,8.266,0,0,0,2.131-6.356A8.606,8.606,0,0,0,71.188,37.3H50.622c1.019-3.093,2.65-8.763,2.65-13.318,0-7.222-6.136-13.318-9.988-13.318a10.457,10.457,0,0,0-6.033,2.028,1.666,1.666,0,0,0-.626,1.3v11.29L27.032,46.059l-.4.2v-.636a1.665,1.665,0,0,0-1.665-1.665H8.324A8.331,8.331,0,0,0,0,52.286V78.922a8.331,8.331,0,0,0,8.324,8.324h9.988a8.343,8.343,0,0,0,7.834-5.5,21.7,21.7,0,0,0,8.813,2.174H65.521A7.659,7.659,0,0,0,73.066,78.1a7.516,7.516,0,0,0-.6-5A7.463,7.463,0,0,0,75.8,63.11,7.461,7.461,0,0,0,79.908,56.448Zm-7.022,4.109a1.664,1.664,0,0,0-.952,2.867,4.125,4.125,0,0,1-2.374,7.122,1.664,1.664,0,0,0-.952,2.867,4.117,4.117,0,0,1,1.205,3.972,4.308,4.308,0,0,1-4.292,3.2H34.96c-2.7,0-7.238-1.269-8.81-2.843a1.667,1.667,0,0,0-2.843,1.179,5,5,0,0,1-4.994,4.994H8.324a5,5,0,0,1-4.994-4.994V52.286a5,5,0,0,1,4.994-4.994H23.306v1.665a1.672,1.672,0,0,0,.792,1.418,1.7,1.7,0,0,0,1.618.07l3.329-1.665a1.662,1.662,0,0,0,.766-.789L39.8,26.349a1.7,1.7,0,0,0,.153-.7V14.9a7.021,7.021,0,0,1,3.33-.9c1.825,0,6.659,4.535,6.659,9.988,0,5.86-3.19,14.307-3.22,14.39a1.662,1.662,0,0,0,1.555,2.257h22.91a5.257,5.257,0,0,1,5.367,4.525,4.974,4.974,0,0,1-2.371,4.711,1.667,1.667,0,0,0,.113,2.9,4.122,4.122,0,0,1-1.412,7.788Z" transform="translate(0 -10.667)"/>
      </g>
    </g>
    <g id="Grupo_45" data-name="Grupo 45" transform="translate(23.306 47.291)">
      <g id="Grupo_44" data-name="Grupo 44">
        <path id="Trazado_27" data-name="Trazado 27" d="M151,245.333A1.665,1.665,0,0,0,149.333,247v29.965a1.665,1.665,0,1,0,3.33,0V247A1.665,1.665,0,0,0,151,245.333Z" transform="translate(-149.333 -245.333)"/>
      </g>
    </g>
  </g>
</svg>
