<svg xmlns="http://www.w3.org/2000/svg" width="20.7" height="22.464" viewBox="0 0 20.7 22.464">
  <g id="CONSTRUCCIOÌN" transform="translate(-2.226 17.411)">
    <path id="Trazado_33" data-name="Trazado 33" d="M9.938-17.329a1.776,1.776,0,0,0-.285.236l-.155.167.242,1.563a14.055,14.055,0,0,1,.2,1.737.351.351,0,0,1-.657.1c-.037-.076-.161-.736-.279-1.466s-.217-1.341-.229-1.355a5.134,5.134,0,0,0-1.215.966,5.9,5.9,0,0,0-1.513,3.432c-.068.611-.081.646-.223.646a.856.856,0,0,0-.663,1.25c.2.438-.074.417,5.921.417s5.723.021,5.921-.417a.856.856,0,0,0-.663-1.25c-.143,0-.155-.035-.223-.646a5.9,5.9,0,0,0-1.513-3.432,5.135,5.135,0,0,0-1.215-.966c-.012.014-.118.625-.229,1.355s-.242,1.389-.279,1.466a.351.351,0,0,1-.657-.1,14.056,14.056,0,0,1,.2-1.737l.242-1.563-.155-.167a1.647,1.647,0,0,0-.3-.243A8.365,8.365,0,0,0,9.938-17.329Z" transform="translate(1.483 0)"/>
    <path id="Trazado_34" data-name="Trazado 34" d="M5.475-11.316A3.158,3.158,0,0,0,6.167-9.44a3.418,3.418,0,0,1,.453.834c.924,2.244,2.344,3.7,3.812,3.939C12.115-4.4,13.84-5.87,15-8.586a4.287,4.287,0,0,1,.49-.924,3.461,3.461,0,0,0,.624-1.841l.031-.257h-.832l-.037.431c-.067.827-.386,1.507-.649,1.41-.086-.028-.122.007-.159.153a9.131,9.131,0,0,1-.8,1.82c-.942,1.591-2.258,2.39-3.4,2.063A5.378,5.378,0,0,1,7.244-9.322c-.129-.375-.184-.458-.269-.431-.282.083-.661-.868-.606-1.514l.031-.34H5.438Z" transform="translate(1.671 2.206)"/>
    <path id="Trazado_35" data-name="Trazado 35" d="M6.582-7.04l-.229.028v5.272h9.586V-7l-.326-.049c-.2-.028-.34-.014-.354.028a13.8,13.8,0,0,1-1.195,1.7c-.6.729-1.827,2.119-1.876,2.119a7.856,7.856,0,0,1-.285-.966l-.257-.973.167-.153a1.278,1.278,0,0,0,.306-.847v-.188H10.173v.195a1.337,1.337,0,0,0,.292.827l.153.16-.236.973A7.131,7.131,0,0,1,10.1-3.2c-.042,0-1.063-1.139-1.681-1.876A11.853,11.853,0,0,1,7.186-6.769c-.1-.181-.215-.313-.278-.306S6.7-7.053,6.582-7.04Z" transform="translate(1.424 3.806)"/>
    <path id="Trazado_36" data-name="Trazado 36" d="M5.24-6.561A6.028,6.028,0,0,0,2.49-2.914,3.212,3.212,0,0,0,2.226-1.65a1.727,1.727,0,0,0,.229.993A1.776,1.776,0,0,0,3.1.114,5.379,5.379,0,0,0,4.567.872l.181.042V.337a2.018,2.018,0,0,1,.917-1.883L6-1.761V-4.29C6-7.2,6.074-6.978,5.24-6.561Z" transform="translate(0 3.945)"/>
    <path id="Trazado_37" data-name="Trazado 37" d="M14.3-4.291v2.529l.333.215A2.018,2.018,0,0,1,15.555.336V.912L15.736.87A5.379,5.379,0,0,0,17.2.113a1.859,1.859,0,0,0,.653-.778,2.577,2.577,0,0,0-.042-2.251,6.029,6.029,0,0,0-2.772-3.661C14.228-6.965,14.3-7.194,14.3-4.291Z" transform="translate(4.834 3.947)"/>
    <path id="Trazado_38" data-name="Trazado 38" d="M5.438-2.885A.872.872,0,0,0,4.82-2.3a.991.991,0,0,0,.4,1.264.84.84,0,0,0,.632.125A.786.786,0,0,0,6.48-1.19,1.024,1.024,0,0,0,5.438-2.885Z" transform="translate(1.029 5.952)"/>
    <path id="Trazado_39" data-name="Trazado 39" d="M13.517-2.88A.972.972,0,0,0,12.9-1.539a.952.952,0,0,0,.924.639,1,1,0,0,0,.9-1.528A.971.971,0,0,0,13.517-2.88Z" transform="translate(4.346 5.953)"/>
  </g>
</svg>
