<svg xmlns="http://www.w3.org/2000/svg" width="150.125" height="162.914" viewBox="0 0 150.125 162.914">
  <g id="CONSTRUCCIOÌN" transform="translate(-2.226 17.411)">
    <path id="Trazado_33" data-name="Trazado 33" d="M40.327-16.818a12.881,12.881,0,0,0-2.068,1.713L37.135-13.9,38.888-2.561c.989,6.247,1.619,11.889,1.484,12.595a2.548,2.548,0,0,1-4.766.756c-.27-.554-1.169-5.34-2.023-10.63-.809-5.29-1.574-9.723-1.664-9.824-.36-.4-6.52,4.484-8.813,7A42.817,42.817,0,0,0,12.134,22.225c-.495,4.433-.585,4.685-1.619,4.685-4.092,0-6.7,4.937-4.811,9.068C7.143,39.152,5.164,39,48.646,39s41.5.151,42.942-3.023c1.889-4.131-.719-9.068-4.811-9.068-1.034,0-1.124-.252-1.619-4.685A42.817,42.817,0,0,0,74.186-2.662c-2.293-2.519-8.453-7.406-8.813-7-.09.1-.854,4.534-1.664,9.824-.854,5.29-1.754,10.076-2.023,10.63a2.548,2.548,0,0,1-4.766-.756c-.135-.705.495-6.348,1.484-12.595L60.157-13.9l-1.124-1.209a11.941,11.941,0,0,0-2.158-1.763C55.57-17.624,41.541-17.574,40.327-16.818Z" transform="translate(28.588)" fill="rgba(0,0,0,0.15)"/>
    <path id="Trazado_34" data-name="Trazado 34" d="M5.7-9.492c.843,6.7,2.574,11.335,5.015,13.6.71.655,2.086,3.224,3.284,6.045,6.7,16.272,17,26.852,27.649,28.564,12.2,1.965,24.72-8.715,33.108-28.413a31.092,31.092,0,0,1,3.55-6.7c2.042-1.965,3.772-7.1,4.527-13.35l.222-1.864H77.025l-.266,3.123c-.488,6-2.8,10.932-4.7,10.227-.621-.2-.888.05-1.154,1.108-.533,2.519-3.639,9.622-5.77,13.2C58.3,27.587,48.754,33.38,40.5,31.012c-8.921-2.62-17.53-12.746-21.969-26.046C17.6,2.246,17.2,1.642,16.578,1.843c-2.042.6-4.793-6.3-4.394-10.982l.222-2.469H5.438Z" transform="translate(32.203 52.281)" fill="rgba(0,0,0,0.15)"/>
    <path id="Trazado_35" data-name="Trazado 35" d="M8.015-6.821l-1.662.2V31.618H75.874V-6.518l-2.368-.353c-1.461-.2-2.469-.1-2.569.2C70.484-5.41,65.6,1.592,62.272,5.673c-4.333,5.29-13.249,15.365-13.6,15.365a56.973,56.973,0,0,1-2.066-7L44.741,6.983,45.95,5.875A9.265,9.265,0,0,0,48.166-.272v-1.36H34.06V-.221a9.7,9.7,0,0,0,2.116,6l1.108,1.159-1.713,7.053a51.714,51.714,0,0,1-2.015,7.053c-.3,0-7.708-8.262-12.192-13.6C17.234,2.5,13.758-2.236,12.4-4.856c-.705-1.31-1.562-2.267-2.015-2.217C9.98-7.073,8.871-6.921,8.015-6.821Z" transform="translate(36.126 92.223)" fill="rgba(0,0,0,0.15)"/>
    <path id="Trazado_36" data-name="Trazado 36" d="M24.09-5.035C15.475-.753,8.876,8.013,4.14,21.414c-1.562,4.333-1.864,5.945-1.914,9.169a12.523,12.523,0,0,0,1.662,7.2,12.881,12.881,0,0,0,4.685,5.592A39.009,39.009,0,0,0,19.2,48.87l1.31.3V44.991c.05-6.549,2.066-10.68,6.65-13.653l2.418-1.562V11.439C29.581-9.67,30.135-8.058,24.09-5.035Z" transform="translate(0 94.921)" fill="rgba(0,0,0,0.15)"/>
    <path id="Trazado_37" data-name="Trazado 37" d="M14.317,11.418V29.756l2.418,1.562c4.584,2.972,6.6,7.1,6.65,13.653v4.181l1.31-.3a39.009,39.009,0,0,0,10.63-5.491,13.485,13.485,0,0,0,4.736-5.642c2.368-4.836,2.317-9.068-.3-16.323C35.022,7.942,28.171-1.075,19.657-5.156,13.763-7.977,14.317-9.64,14.317,11.418Z" transform="translate(110.569 94.941)" fill="rgba(0,0,0,0.15)"/>
    <path id="Trazado_38" data-name="Trazado 38" d="M9.861-2.5C7.292-1.54,6.486-.784,5.378,1.735A7.19,7.19,0,0,0,8.249,10.9a6.092,6.092,0,0,0,4.584.907c2.368-.2,3.073-.5,4.584-2.015C22.909,4.3,17.116-5.116,9.861-2.5Z" transform="translate(23.123 133.592)" fill="rgba(0,0,0,0.15)"/>
    <path id="Trazado_39" data-name="Trazado 39" d="M17.927-2.471c-4.333,1.562-6.2,5.592-4.484,9.723a6.9,6.9,0,0,0,6.7,4.635c5.945,0,9.673-6.4,6.5-11.083C24.325-2.572,21.353-3.68,17.927-2.471Z" transform="translate(97.707 133.616)" fill="rgba(0,0,0,0.15)"/>
  </g>
</svg>
