<svg id="Grupo_10" data-name="Grupo 10" xmlns="http://www.w3.org/2000/svg" width="42.044" height="41.903" viewBox="0 0 42.044 41.903">
  <path id="Trazado_1" data-name="Trazado 1" d="M48.858,109.394a.69.69,0,0,0,.5-1.166,18.737,18.737,0,0,1-1.146-24.566.69.69,0,0,0-.053-.916l-.914-.914,5.874-1.575-1.575,5.874-.613-.613a.69.69,0,0,0-1.042.077,16.255,16.255,0,0,0,1.091,20.7A.69.69,0,1,0,52,105.358a14.882,14.882,0,0,1-1.462-18.284l.879.879a.69.69,0,0,0,1.155-.31l2.194-8.185a.69.69,0,0,0-.845-.845l-8.185,2.194a.69.69,0,0,0-.31,1.155l1.333,1.332a20.118,20.118,0,0,0,1.6,25.885A.686.686,0,0,0,48.858,109.394Z" transform="translate(-42.79 -75.13)" fill="#7b0188"/>
  <path id="Trazado_2" data-name="Trazado 2" d="M198.867,57.744a.689.689,0,0,0-.6-.345H196.23c-.073-.223-.15-.447-.231-.668A20.16,20.16,0,0,0,169.841,44.84a.69.69,0,1,0,.5,1.288,18.635,18.635,0,0,1,6.732-1.248A18.854,18.854,0,0,1,194.7,57.207c.131.357.251.72.357,1.078a.691.691,0,0,0,.662.495h1.352l-3.041,5.267-1.628-2.819-.013-.024-1.4-2.425h.62a.691.691,0,0,0,.645-.936c-.15-.393-.318-.788-.5-1.171a16.277,16.277,0,0,0-20.491-8.21.69.69,0,0,0,.493,1.29,14.809,14.809,0,0,1,5.31-.975,14.959,14.959,0,0,1,13.442,8.491l.062.132H189.8a.69.69,0,0,0-.6,1.035l1.985,3.438.013.024,2.238,3.877a.69.69,0,0,0,1.2,0l4.236-7.338A.692.692,0,0,0,198.867,57.744Z" transform="translate(-156.916 -43.5)" fill="#7b0188"/>
  <path id="Trazado_3" data-name="Trazado 3" d="M137.622,291.06a.689.689,0,0,0,.069.686l4.953,6.875a.689.689,0,0,0,.56.287.545.545,0,0,0,.069,0,.69.69,0,0,0,.56-.4l.7-1.555a20.184,20.184,0,0,0,23.554-15.593.69.69,0,1,0-1.35-.287,18.786,18.786,0,0,1-22.454,14.418.689.689,0,0,0-.78.39l-.437.97-3.555-4.936,6.052-.61-.419.93a.689.689,0,0,0,.516.963,16.461,16.461,0,0,0,2.712.225,16.248,16.248,0,0,0,15.746-12.2.69.69,0,1,0-1.337-.343,14.9,14.9,0,0,1-16,11.076l.53-1.178a.689.689,0,0,0-.7-.969l-8.43.851A.687.687,0,0,0,137.622,291.06Z" transform="translate(-128.217 -257.005)" fill="#7b0188"/>
  <path id="Trazado_4" data-name="Trazado 4" d="M193.735,132.7l-.007-.014c-.058-.121-.118-.242-.179-.361a14.736,14.736,0,0,0-4.337-5.072l-.007,0a.656.656,0,0,0-.084-.051l-.013-.006a.7.7,0,0,0-.089-.036l-.006,0a.733.733,0,0,0-.095-.023l-.02,0a.6.6,0,0,0-.193,0l-.02,0a.734.734,0,0,0-.095.023l-.006,0a.7.7,0,0,0-.089.036l-.013.006a.655.655,0,0,0-.084.051l-.007,0A14.637,14.637,0,0,0,182.62,141.4a.69.69,0,1,0,1.363-.223,13.417,13.417,0,0,1-.173-2.145,13.183,13.183,0,0,1,.183-2.182l4.118,4.638v3.632h0v3.671a13.346,13.346,0,0,1-2.822-3.673.69.69,0,1,0-1.226.636,14.735,14.735,0,0,0,4.327,5.053l.007,0a.659.659,0,0,0,.084.051l.013.006a.7.7,0,0,0,.089.036l.006,0a.734.734,0,0,0,.095.023l.02,0a.6.6,0,0,0,.193,0l.02,0a.735.735,0,0,0,.095-.023l.006,0a.7.7,0,0,0,.089-.036l.013-.006a.66.66,0,0,0,.084-.051l.007,0a14.574,14.574,0,0,0,5.948-11.16.692.692,0,0,0,.012-.442c0-.058,0-.116,0-.175A14.649,14.649,0,0,0,193.735,132.7Zm-4.243,4.914,3.391-3.391a13.189,13.189,0,0,1,.911,4.807c0,.04,0,.082,0,.122l-4.3,4.3Zm2.778-4.731-2.778,2.778V129.27A13.292,13.292,0,0,1,192.271,132.883Zm-7.891,2.322a13.322,13.322,0,0,1,3.731-5.935v8.056h0v2.078Zm5.112,13.584V145.4l4.1-4.1A13.309,13.309,0,0,1,189.492,148.789Z" transform="translate(-168.662 -118.875)" fill="#7b0188"/>
  <path id="Trazado_5" data-name="Trazado 5" d="M190.285,284.78a.765.765,0,0,0,.063-.119.723.723,0,0,0,.039-.129.691.691,0,0,0,.014-.135.706.706,0,0,0-.014-.135.738.738,0,0,0-.039-.128.723.723,0,0,0-.063-.119.691.691,0,0,0-.086-.105.7.7,0,0,0-.623-.188.711.711,0,0,0-.248.1.731.731,0,0,0-.1.086.642.642,0,0,0-.087.105.723.723,0,0,0-.063.119.739.739,0,0,0-.039.128.7.7,0,0,0-.014.135.689.689,0,0,0,.014.135.725.725,0,0,0,.039.129.765.765,0,0,0,.063.119.678.678,0,0,0,.087.1.623.623,0,0,0,.1.086.689.689,0,0,0,.248.1.7.7,0,0,0,.623-.189A.734.734,0,0,0,190.285,284.78Z" transform="translate(-174.602 -260.023)" fill="#7b0188"/>
</svg>
