<svg id="Icon_weather-lightning" data-name="Icon weather-lightning" xmlns="http://www.w3.org/2000/svg" width="24.154" height="32" viewBox="0 0 24.154 32">
  <path id="Icon_weather-lightning-2" data-name="Icon weather-lightning" d="M9.552,39.092h.671L22.06,21.578q.232-.465-.258-.465H16.915l5.144-9.376c.155-.31.034-.465-.344-.465H15.161a.625.625,0,0,0-.5.31L9.879,24.313c-.034.31.069.465.327.465h4.731ZM24.176,28.2h.465l8.981-13.2a.392.392,0,0,0,.069-.344c-.034-.086-.138-.12-.292-.12H29.784l3.751-6.933q.31-.516-.31-.516H28.511a.555.555,0,0,0-.516.327l-3.578,9.428a.371.371,0,0,0,.017.361.383.383,0,0,0,.327.12h3.51Z" transform="translate(-9.552 -7.092)" fill="#000000"/>
</svg>
