<svg xmlns="http://www.w3.org/2000/svg" width="18.713" height="24.791" viewBox="0 0 18.713 24.791">
  <path id="Icon_weather-lightning" data-name="Icon weather-lightning" d="M9.552,31.883h.52l9.17-13.568q.18-.36-.2-.36H15.257l3.985-7.264c.12-.24.027-.36-.267-.36H13.9a.484.484,0,0,0-.387.24L9.805,20.434c-.027.24.053.36.253.36h3.665Zm11.329-8.437h.36L28.2,13.223a.3.3,0,0,0,.053-.267c-.027-.067-.107-.093-.227-.093h-2.8l2.906-5.371q.24-.4-.24-.4H24.24a.43.43,0,0,0-.4.253l-2.772,7.3a.287.287,0,0,0,.013.28.3.3,0,0,0,.253.093h2.719Z" transform="translate(-9.552 -7.092)" fill="#fff"/>
</svg>
