<svg xmlns="http://www.w3.org/2000/svg" width="112.638" height="150" viewBox="0 0 112.638 150">
  <path id="Icon_weather-lightning" data-name="Icon weather-lightning" d="M9.552,157.092h3.129L67.878,75q1.083-2.177-1.2-2.177H43.89L67.878,28.866c.722-1.452.16-2.177-1.6-2.177H35.706A2.911,2.911,0,0,0,33.38,28.14l-22.3,59.677C10.916,89.269,11.4,90,12.6,90H34.663Zm68.194-51.048h2.166l41.879-61.855a1.844,1.844,0,0,0,.321-1.613c-.16-.4-.642-.565-1.364-.565H103.9l17.49-32.5q1.444-2.419-1.444-2.419H97.964a2.585,2.585,0,0,0-2.407,1.532L78.869,52.818a1.746,1.746,0,0,0,.08,1.694,1.781,1.781,0,0,0,1.524.565H96.84Z" transform="translate(-9.552 -7.092)" fill="rgba(0,0,0,0.45)"/>
</svg>
