<svg xmlns="http://www.w3.org/2000/svg" width="171.375" height="150" viewBox="0 0 171.375 150">
  <path id="Icon_map-food" data-name="Icon map-food" d="M171.717,42.862,157.667,152.825H110.214L96.222,42.313h57.932L165.6,2.825,172.1,4.778l-10.986,38,10.607.082Zm-82.2,63.619s1.774-14.26-22.832-14.26H27.494c-24.571,0-22.832,14.26-22.832,14.26H89.514ZM4.662,138.565s-1.739,14.26,22.832,14.26H66.685c24.607,0,22.832-14.26,22.832-14.26Zm81.171-7.13c4.027,0,7.28-3.971,7.28-8.909,0-4.966-3.253-8.916-7.28-8.916H8c-4.009,0-7.283,3.95-7.283,8.916,0,4.937,3.274,8.909,7.283,8.909H85.833Z" transform="translate(-0.72 -2.825)" fill="rgba(0,0,0,0.15)"/>
</svg>
