<svg id="Icon_map-food" data-name="Icon map-food" xmlns="http://www.w3.org/2000/svg" width="24.661" height="21.618" viewBox="0 0 24.661 21.618">
  <path id="Icon_map-food-2" data-name="Icon map-food" d="M25.326,8.595,23.3,24.442H16.476L14.463,8.516H22.8l1.648-5.691.934.282L23.8,8.583l1.526.012ZM13.5,17.763s.255-2.055-3.286-2.055H4.573c-3.536,0-3.286,2.055-3.286,2.055H13.5ZM1.287,22.387s-.25,2.055,3.286,2.055h5.64c3.541,0,3.286-2.055,3.286-2.055ZM12.968,21.36a1.182,1.182,0,0,0,1.048-1.284,1.18,1.18,0,0,0-1.048-1.285H1.768A1.182,1.182,0,0,0,.72,20.076,1.184,1.184,0,0,0,1.768,21.36h11.2Z" transform="translate(-0.72 -2.825)" fill="#818080"/>
</svg>
