<svg id="clock" xmlns="http://www.w3.org/2000/svg" width="79.997" height="79.997" viewBox="0 0 79.997 79.997">
  <path id="Trazado_24" data-name="Trazado 24" d="M71.579,21.049A3.333,3.333,0,0,0,70.03,25.5,32.992,32.992,0,0,1,73.33,40,33.332,33.332,0,1,1,40,6.666a32.931,32.931,0,0,1,20.692,7.191A3.333,3.333,0,1,0,64.839,8.64,40,40,0,1,0,80,40,39.59,39.59,0,0,0,76.03,22.6,3.33,3.33,0,0,0,71.579,21.049Zm0,0"/>
  <path id="Trazado_25" data-name="Trazado 25" d="M179.333,64A3.334,3.334,0,0,0,176,67.333V90.666A3.334,3.334,0,0,0,179.333,94H196a3.333,3.333,0,1,0,0-6.666H182.666v-20A3.334,3.334,0,0,0,179.333,64Zm0,0" transform="translate(-139.335 -50.667)"/>
</svg>
