<svg xmlns="http://www.w3.org/2000/svg" width="66.754" height="51.91" viewBox="0 0 66.754 51.91">
  <path id="Icon_awesome-home" data-name="Icon awesome-home" d="M32.491,15.72l-21.365,17.6V52.309a1.854,1.854,0,0,0,1.854,1.854l12.986-.034a1.854,1.854,0,0,0,1.845-1.854V41.185a1.854,1.854,0,0,1,1.854-1.854h7.417a1.854,1.854,0,0,1,1.854,1.854V52.268a1.854,1.854,0,0,0,1.854,1.86l12.981.036a1.854,1.854,0,0,0,1.854-1.854v-19L34.264,15.72A1.413,1.413,0,0,0,32.491,15.72ZM66.24,27.681,56.552,19.7V3.644a1.391,1.391,0,0,0-1.391-1.391H48.672a1.391,1.391,0,0,0-1.391,1.391v8.414L36.906,3.522a5.562,5.562,0,0,0-7.069,0L.5,27.681a1.391,1.391,0,0,0-.185,1.958l2.955,3.592a1.391,1.391,0,0,0,1.96.189L32.491,10.969a1.413,1.413,0,0,1,1.773,0L61.523,33.42a1.391,1.391,0,0,0,1.958-.185l2.955-3.592a1.391,1.391,0,0,0-.2-1.962Z" transform="translate(0.001 -2.254)" fill="rgba(0,0,0,0.4)"/>
</svg>
