<svg xmlns="http://www.w3.org/2000/svg" width="19" height="19.001" viewBox="0 0 19 19.001">
  <path id="Icon_awesome-tools" data-name="Icon awesome-tools" d="M18.593,14.683l-4.345-4.345a2.755,2.755,0,0,0-3.169-.516L7.123,5.867v-2.3L2.373,0,0,2.375l3.562,4.75h2.3L9.821,11.08a2.761,2.761,0,0,0,.516,3.169l4.345,4.345a1.38,1.38,0,0,0,1.956,0l1.956-1.956A1.386,1.386,0,0,0,18.593,14.683ZM12.307,8.349A3.9,3.9,0,0,1,15.086,9.5l.72.72a5.253,5.253,0,0,0,1.625-1.095,5.336,5.336,0,0,0,1.406-5.073.444.444,0,0,0-.746-.2L15.331,6.609l-2.52-.419-.419-2.52L15.153.909a.448.448,0,0,0-.212-.75A5.345,5.345,0,0,0,9.873,1.566,5.259,5.259,0,0,0,8.344,5.41L11.39,8.457A4.042,4.042,0,0,1,12.307,8.349ZM8.451,11.392l-2.1-2.1L.692,14.947A2.375,2.375,0,0,0,4.05,18.305l4.586-4.586a3.985,3.985,0,0,1-.186-2.327ZM2.373,17.515a.891.891,0,1,1,.891-.891A.893.893,0,0,1,2.373,17.515Z" transform="translate(0.004)" fill="#fff"/>
</svg>
