<svg id="_11-call_center_support" data-name="11-call center support" xmlns="http://www.w3.org/2000/svg" width="79.592" height="79.592" viewBox="0 0 79.592 79.592">
  <g id="linear_color" data-name="linear color" transform="translate(0 0)">
    <path id="Trazado_14" data-name="Trazado 14" d="M64.057,35.193V30.354a1.9,1.9,0,0,0-1.663-1.881l-4-.495-1.254-3.027,2.481-3.182a1.9,1.9,0,0,0-.154-2.505L52,11.8a1.9,1.9,0,0,0-2.505-.154l-3.182,2.48-3.027-1.254-.495-4A1.9,1.9,0,0,0,40.91,7.206H30.354a1.9,1.9,0,0,0-1.881,1.663l-.495,4-3.027,1.254L21.77,11.647a1.9,1.9,0,0,0-2.505.154L11.8,19.264a1.9,1.9,0,0,0-.154,2.505l2.481,3.182-1.254,3.027-4,.495a1.9,1.9,0,0,0-1.664,1.881V40.91A1.9,1.9,0,0,0,8.869,42.79l4,.495,1.254,3.027-2.481,3.182A1.9,1.9,0,0,0,11.8,52l7.463,7.463a1.9,1.9,0,0,0,2.505.154l3.182-2.481,3.027,1.254.495,4a1.9,1.9,0,0,0,1.881,1.663h4.839A25.9,25.9,0,1,0,64.057,35.193ZM31.6,56.829a1.9,1.9,0,0,0-1.156-1.519l-5.068-2.1a1.9,1.9,0,0,0-1.89.256L20.759,55.6,15.665,50.5l2.13-2.732a1.9,1.9,0,0,0,.256-1.89l-2.1-5.068a1.9,1.9,0,0,0-1.519-1.156L11,39.234v-7.2l3.438-.425a1.9,1.9,0,0,0,1.519-1.156l2.1-5.068a1.9,1.9,0,0,0-.256-1.89l-2.13-2.732,5.094-5.094,2.732,2.13a1.9,1.9,0,0,0,1.89.256l5.068-2.1a1.9,1.9,0,0,0,1.156-1.519L32.03,11h7.2l.425,3.438a1.9,1.9,0,0,0,1.156,1.519l5.068,2.1a1.9,1.9,0,0,0,1.89-.256l2.732-2.13L55.6,20.76l-2.13,2.732a1.9,1.9,0,0,0-.256,1.89l2.1,5.068a1.9,1.9,0,0,0,1.519,1.156l3.437.424v2.979A25.725,25.725,0,0,0,49.912,37.45,14.418,14.418,0,1,0,37.449,49.915a25.725,25.725,0,0,0-2.441,10.353H32.03Zm8.765-11.7a10.612,10.612,0,1,1,4.758-4.758,26.125,26.125,0,0,0-4.758,4.758ZM60.9,83.008A22.109,22.109,0,1,1,83.008,60.9,22.133,22.133,0,0,1,60.9,83.008Z" transform="translate(-7.206 -7.206)"/>
    <path id="Trazado_15" data-name="Trazado 15" d="M444.241,424.659h-3.158v-1.9a12,12,0,1,0-24,0v1.9H413.92a3.162,3.162,0,0,0-3.158,3.158v6.633a2.846,2.846,0,0,0,2.843,2.843h3.474v.632a5.691,5.691,0,0,0,5.685,5.685h8.844a1.9,1.9,0,0,0,0-3.79h-8.844a1.9,1.9,0,0,1-1.9-1.9v-15.16a8.212,8.212,0,0,1,16.424,0V435.4a1.9,1.9,0,0,0,1.895,1.9h5.369a2.846,2.846,0,0,0,2.843-2.843v-6.633A3.162,3.162,0,0,0,444.241,424.659Zm-29.689,3.79h2.527V433.5h-2.527Zm29.057,5.053h-2.527v-5.053h2.527Z" transform="translate(-375.388 -375.388)"/>
  </g>
</svg>
