<svg xmlns="http://www.w3.org/2000/svg" width="149.994" height="150" viewBox="0 0 149.994 150">
  <path id="Icon_awesome-tools" data-name="Icon awesome-tools" d="M146.8,115.916l-34.3-34.3a21.751,21.751,0,0,0-25.017-4.072L56.256,46.314V28.122L18.759,0,.011,18.748l28.122,37.5H46.325L77.552,87.472a21.8,21.8,0,0,0,4.072,25.017l34.3,34.3a10.891,10.891,0,0,0,15.438,0L146.8,131.354A10.944,10.944,0,0,0,146.8,115.916Zm-49.624-50a30.821,30.821,0,0,1,21.941,9.081l5.683,5.683a41.466,41.466,0,0,0,12.831-8.642,42.128,42.128,0,0,0,11.1-40.045,3.506,3.506,0,0,0-5.888-1.611L121.054,52.173l-19.891-3.31-3.31-19.891L119.648,7.177a3.537,3.537,0,0,0-1.67-5.917,42.2,42.2,0,0,0-40.016,11.1A41.513,41.513,0,0,0,65.893,42.711l24.05,24.05A31.912,31.912,0,0,1,97.179,65.912ZM66.743,89.933l-16.61-16.61L5.489,118A18.746,18.746,0,0,0,32,144.507L68.208,108.3a31.458,31.458,0,0,1-1.465-18.367ZM18.759,138.268a7.031,7.031,0,1,1,7.031-7.031A7.051,7.051,0,0,1,18.759,138.268Z" transform="translate(0.004)" fill="rgba(0,0,0,0.15)"/>
</svg>
