<svg xmlns="http://www.w3.org/2000/svg" width="24.825" height="24.826" viewBox="0 0 24.825 24.826">
  <path id="Icon_awesome-tools" data-name="Icon awesome-tools" d="M24.294,19.185l-5.677-5.677a3.6,3.6,0,0,0-4.14-.674L9.308,7.665V4.654L3.1,0,0,3.1,4.653,9.309H7.664l5.168,5.168a3.608,3.608,0,0,0,.674,4.14l5.677,5.677a1.8,1.8,0,0,0,2.555,0l2.555-2.555a1.811,1.811,0,0,0,0-2.555Zm-8.213-8.276a5.1,5.1,0,0,1,3.631,1.5l.941.941a6.863,6.863,0,0,0,2.124-1.43,6.973,6.973,0,0,0,1.838-6.628.58.58,0,0,0-.975-.267L20.032,8.635,16.74,8.087l-.548-3.292L19.8,1.188a.585.585,0,0,0-.276-.979A6.984,6.984,0,0,0,12.9,2.046a6.871,6.871,0,0,0-2,5.023l3.98,3.98A5.282,5.282,0,0,1,16.081,10.909Zm-5.037,3.976L8.294,12.135.906,19.529a3.1,3.1,0,0,0,4.388,4.388l5.993-5.993a5.206,5.206,0,0,1-.242-3.04Zm-7.942,8a1.164,1.164,0,1,1,1.164-1.164A1.167,1.167,0,0,1,3.1,22.884Z" transform="translate(0.004)" fill="#818080"/>
</svg>
