<svg xmlns="http://www.w3.org/2000/svg" width="15.606" height="19" viewBox="0 0 15.606 19">
  <path id="Icon_ionic-ios-airplane" data-name="Icon ionic-ios-airplane" d="M18.182,11.509c-.144,0-.628,0-.763.013l-2.752.072a.079.079,0,0,1-.072-.038L10.468,5.376A.682.682,0,0,0,9.9,5.063H8.89c-.237,0-.318.237-.233.458l2.125,6.056a.083.083,0,0,1-.076.115l-5.191.076a.342.342,0,0,1-.28-.131L3.666,9.727a.673.673,0,0,0-.534-.259H2.419a.169.169,0,0,0-.161.225L3.1,12.607a.691.691,0,0,1,0,.5l-.844,2.913a.169.169,0,0,0,.161.225h.708a.686.686,0,0,0,.534-.259l1.6-1.938a.347.347,0,0,1,.28-.131l5.161.115a.084.084,0,0,1,.076.115l-2.125,6.06c-.085.221,0,.458.233.458H9.891a.676.676,0,0,0,.573-.314l4.131-6.175a.083.083,0,0,1,.072-.038l2.752.072c.14.008.619.013.763.013,1.879,0,3.066-.606,3.066-1.357S20.065,11.509,18.182,11.509Z" transform="translate(-5.063 21.248) rotate(-90)" fill="#fff"/>
</svg>
