<svg xmlns="http://www.w3.org/2000/svg" width="19" height="15.2" viewBox="0 0 19 15.2">
  <path id="Icon_awesome-truck" data-name="Icon awesome-truck" d="M18.525,10.45H18.05V7.241a1.425,1.425,0,0,0-.419-1.006L14.666,3.269a1.425,1.425,0,0,0-1.006-.419H12.35V1.425A1.425,1.425,0,0,0,10.925,0h-9.5A1.425,1.425,0,0,0,0,1.425v9.5A1.425,1.425,0,0,0,1.425,12.35H1.9a2.85,2.85,0,1,0,5.7,0h3.8a2.85,2.85,0,0,0,5.7,0h1.425A.476.476,0,0,0,19,11.875v-.95A.476.476,0,0,0,18.525,10.45ZM4.75,13.775A1.425,1.425,0,1,1,6.175,12.35,1.425,1.425,0,0,1,4.75,13.775Zm9.5,0a1.425,1.425,0,1,1,1.425-1.425A1.425,1.425,0,0,1,14.25,13.775ZM16.625,7.6H12.35V4.275h1.309l2.966,2.966Z"/>
</svg>
