<svg xmlns="http://www.w3.org/2000/svg" width="150" height="120" viewBox="0 0 150 120">
  <path id="Icon_awesome-truck" data-name="Icon awesome-truck" d="M146.25,82.5H142.5V57.164a11.25,11.25,0,0,0-3.3-7.945L115.781,25.8a11.25,11.25,0,0,0-7.945-3.3H97.5V11.25A11.253,11.253,0,0,0,86.25,0h-75A11.253,11.253,0,0,0,0,11.25v75A11.253,11.253,0,0,0,11.25,97.5H15a22.5,22.5,0,1,0,45,0H90a22.5,22.5,0,1,0,45,0h11.25A3.761,3.761,0,0,0,150,93.75v-7.5A3.761,3.761,0,0,0,146.25,82.5ZM37.5,108.75A11.25,11.25,0,1,1,48.75,97.5,11.253,11.253,0,0,1,37.5,108.75Zm75,0A11.25,11.25,0,1,1,123.75,97.5,11.253,11.253,0,0,1,112.5,108.75ZM131.25,60H97.5V33.75h10.336L131.25,57.164Z" fill="rgba(0,0,0,0.15)"/>
</svg>
